<svg width="650" height="518" viewBox="0 0 650 518" fill="none" xmlns="http://www.w3.org/2000/svg">
<path opacity="0.25" d="M486.275 55.0245C474.678 40.2611 477.212 18.9199 491.976 7.2748C506.739 -4.32154 528.08 -1.78789 539.725 12.9755C551.322 27.7389 548.788 49.0801 534.024 60.7252C519.261 72.3215 497.92 69.7879 486.275 55.0245Z" fill="url(#paint0_linear)"/>
<path opacity="0.25" d="M306.824 191.073C272.035 146.783 279.636 82.7596 323.927 47.8244C368.217 13.0354 432.24 20.6363 467.176 64.9266C501.965 109.217 494.364 173.24 450.073 208.176C405.783 242.965 341.76 235.364 306.824 191.073Z" fill="url(#paint1_linear)"/>
<path d="M0 402.518C0 402.518 58.4395 362.418 160.802 365.132C263.164 367.846 342.96 474.156 463.468 462.926C583.976 451.696 650 518 650 518H0V402.518Z" fill="#FFF0EE"/>
<defs>
<linearGradient id="paint0_linear" x1="470.615" y1="11.8897" x2="551.296" y2="53.8474" gradientUnits="userSpaceOnUse">
<stop stop-color="#F07857"/>
<stop offset="0.1407" stop-color="#F18568" stop-opacity="0.8593"/>
<stop offset="0.4183" stop-color="#F5A893" stop-opacity="0.5817"/>
<stop offset="0.8026" stop-color="#FCE0D9" stop-opacity="0.1974"/>
<stop offset="1" stop-color="white" stop-opacity="0"/>
</linearGradient>
<linearGradient id="paint1_linear" x1="259.845" y1="61.6692" x2="501.889" y2="187.542" gradientUnits="userSpaceOnUse">
<stop stop-color="#F07857"/>
<stop offset="0.1407" stop-color="#F18568" stop-opacity="0.8593"/>
<stop offset="0.4183" stop-color="#F5A893" stop-opacity="0.5817"/>
<stop offset="0.8026" stop-color="#FCE0D9" stop-opacity="0.1974"/>
<stop offset="1" stop-color="white" stop-opacity="0"/>
</linearGradient>
</defs>
</svg>
