<?xml version="1.0" encoding="UTF-8"?>
<svg width="21818px" height="4299px" viewBox="0 0 21818 4299" version="1.1" xmlns="http://www.w3.org/2000/svg" xmlns:xlink="http://www.w3.org/1999/xlink">
    <title>Group 2</title>
    <g id="Page-1" stroke="none" stroke-width="1" fill="none" fill-rule="evenodd">
        <g id="logo-hatonet-08-_1_-(1)" transform="translate(0.500000, 1.156584)" fill="#FFFFFF" fill-rule="nonzero">
            <g id="Group" transform="translate(10908.275000, 2148.357776) scale(-1, 1) rotate(-180.000000) translate(-10908.275000, -2148.357776) ">
                <g id="Group-2" transform="translate(-0.000000, 0.000000)">
                    <path d="M248.5,4296.17214 C187.3,4291.67214 130.9,4265.37214 86,4220.37214 C40.9,4175.17214 13.2,4118.97214 2.2,4049.87214 L-5.64892397e-13,4036.37214 L-5.64892397e-13,2148.37214 C-5.64892397e-13,331.572136 -5.64892397e-13,259.872136 1.8,248.372136 C12,180.972136 39.3,123.872136 83,78.972136 C98.3,63.272136 110.6,52.972136 127.3,41.872136 C157.1,21.972136 187.9,9.57213595 224.6,2.67213595 L237,0.372135955 L10901,0.072135955 C18678.1,-0.127864045 21568,0.072135955 21576,0.872135955 C21622.8,5.57213595 21668.6,24.672136 21707.5,55.472136 C21718.4,64.172136 21741.1,86.872136 21749.9,97.872136 C21787,144.472136 21810,202.472136 21815.5,263.872136 C21816.9,279.972136 21816.9,4015.77214 21815.5,4031.87214 C21808.9,4105.27214 21778.4,4171.87214 21728.9,4221.27214 C21685,4264.97214 21630.5,4290.57214 21570.5,4295.87214 C21560,4296.77214 261,4297.07214 248.5,4296.17214 Z M21542,4162.07214 C21557.6,4158.47214 21568.9,4154.37214 21583,4147.37214 C21599.9,4138.87214 21612.2,4130.07214 21626.8,4115.87214 C21659.9,4083.97214 21679.6,4043.67214 21686,3995.47214 C21687.3,3984.97214 21687.5,3797.57214 21687.5,2181.07214 C21687.5,617.972136 21687.3,376.572136 21686,364.872136 C21681.3,320.872136 21666.7,279.672136 21643.4,244.372136 C21604.6,185.772136 21550.6,150.372136 21483.3,139.172136 C21473.6,137.472136 21218.1,137.372136 16958.3,137.172136 L12443.5,136.872136 L12443.5,2150.87214 L12443.5,4164.87214 L16987.8,4164.57214 L21532,4164.37214 L21542,4162.07214 Z M4945,3747.77214 C5151.6,3739.87214 5320.5,3701.77214 5454,3632.97214 C5506.5,3605.87214 5549.7,3576.97214 5593.5,3539.47214 C5609.8,3525.57214 5649.7,3485.07214 5663.9,3467.97214 C5780.8,3327.57214 5841.2,3141.97214 5857,2874.37214 C5857.8,2860.07214 5859,2838.27214 5859.7,2825.87214 C5861.39963,2794.57214 5862.1,944.272136 5860.5,929.372136 C5853,861.972136 5818.5,824.972136 5757.3,818.872136 C5749.1,818.072136 5678.9,817.872136 5502.5,818.072136 C5236.1,818.472136 5255.1,818.072136 5235,823.972136 C5194.7,835.972136 5171,863.372136 5161.9,908.872136 C5160.3,916.672136 5160.1,934.272136 5159.5,1118.87214 C5158.9,1296.67214 5158.6,1321.27214 5157.3,1327.87214 C5151.6,1354.97214 5144.4,1370.27214 5130.5,1385.17214 C5115.8,1400.87214 5098.5,1409.77214 5072.1,1415.17214 L5061,1417.37214 L4862,1417.37214 C4674.1,1417.37214 4662.5,1417.27214 4654.1,1415.57214 C4603.3,1405.27214 4575.7,1377.27214 4565.9,1325.87214 C4564.2,1316.97214 4564,1304.47214 4563.5,1115.87214 C4562.8,895.772136 4563.2,910.572136 4556.9,889.872136 C4546.4,855.572136 4523.4,833.272136 4489,823.772136 C4468.5,818.172136 4485.7,818.572136 4221,818.172136 C4039.9,817.872136 3974.2,818.072136 3966,818.872136 C3937.7,821.872136 3913.5,832.872136 3896.4,850.572136 C3877.4,870.072136 3866.4,896.672136 3862.6,932.072136 C3861.2,944.972136 3861.1,2735.97214 3862.5,2786.37214 C3866.3,2923.47214 3877.6,3027.87214 3899.1,3124.37214 C3948.5,3346.17214 4053.8,3503.67214 4221.2,3606.17214 C4367.4,3695.57214 4562,3742.77214 4809.5,3748.87214 C4846.1,3749.77214 4906.2,3749.27214 4945,3747.77214 Z M10796,3748.87214 C10869,3747.07214 10926.4,3742.47214 10989.4,3733.27214 C11212.7,3700.97214 11391.1,3619.07214 11521.5,3488.87214 C11654,3356.77214 11736.2,3177.47214 11765.9,2955.87214 C11770.3,2922.97214 11773.1,2893.87214 11776.7,2841.37214 C11778.3,2817.77214 11779.1,1728.67214 11777.5,1682.37214 C11772.3,1528.77214 11747.4,1399.27214 11700.2,1280.17214 C11609.2,1050.67214 11439.9,891.872136 11198.9,809.872136 C11095.5,774.772136 10990.9,755.772136 10850.5,746.772136 C10824.3,745.068938 10714.8,744.472136 10682.8,745.772136 C10451.6,755.472136 10269.4,804.972136 10119.2,898.972136 C10028.2,955.972136 9949,1032.87214 9889.7,1121.87214 C9806,1247.57214 9755.1,1399.77214 9736.5,1579.37214 C9734.4,1599.57214 9732.3,1627.97214 9730.3,1659.87214 C9728.7,1686.77214 9727.9,2735.87214 9729.4,2795.47214 C9730.6,2839.37214 9732.3,2870.47214 9735.5,2904.37214 C9755.2,3111.07214 9819.2,3286.07214 9924.4,3419.87214 C9942.6,3443.07214 9957.5,3459.87214 9980.5,3483.17214 C10030.5,3533.97214 10081.1,3573.17214 10144.5,3610.27214 C10165.7,3622.67214 10214.7,3647.17214 10238.5,3657.37214 C10372.1,3714.07214 10526.8,3744.37214 10706,3748.77214 C10750.8,3749.87214 10753.8,3749.87214 10796,3748.87214 Z M1432.5,3673.17214 C1452.5,3668.47214 1466.5,3662.47214 1479.4,3652.87214 C1500.4,3637.27214 1513.8,3614.27214 1519.8,3583.37214 L1521.9,3572.37214 L1522.5,3039.87214 L1523,2507.37214 L1525.7,2496.87214 C1531.8,2472.57214 1539.8,2457.37214 1554.4,2442.77214 C1570.7,2426.57214 1590.2,2417.17214 1618.5,2412.07214 C1627.3,2410.47214 1644.2,2410.37214 1841,2410.37214 C2040.8,2410.37214 2054.6,2410.47214 2064,2412.17214 C2091.9,2417.17214 2110.2,2425.57214 2125.8,2440.77214 C2141.1,2455.57214 2149.8,2472.17214 2155.8,2498.07214 L2158,2507.37214 L2158.5,3040.37214 C2159.1,3520.47214 2159.3,3574.17214 2160.7,3581.47214 C2163.6,3596.17214 2166.5,3605.27214 2171.9,3616.37214 C2187,3647.17214 2210.8,3664.77214 2248.5,3673.17214 C2258,3675.27214 2258.1,3675.27214 2503.5,3675.67214 C2683,3675.87214 2752.1,3675.67214 2760.5,3674.87214 C2790.7,3671.77214 2816,3660.77214 2832,3643.67214 C2846.7,3627.97214 2854.9,3609.57214 2859.2,3582.67214 C2860.9,3571.87214 2861,3513.77214 2861,2246.87214 C2861,1005.57214 2860.9,921.772136 2859.3,912.372136 C2854.7,885.372136 2845.3,865.072136 2830.4,850.072136 C2812.8,832.272136 2787.9,821.672136 2757.4,818.872136 C2748.5,818.072136 2676.1,817.872136 2502.5,818.072136 C2273.6,818.372136 2259.5,818.472136 2251,820.172136 C2225.4,825.372136 2206.6,834.672136 2191.4,849.872136 C2175.4,865.772136 2166.5,883.772136 2160.8,911.872136 C2159.2,919.772136 2159.1,944.372136 2158.5,1265.87214 C2157.8,1652.37214 2158.6,1616.17214 2150.7,1639.47214 C2145.1,1655.97214 2139.8,1664.57214 2128,1676.47214 C2113.8,1690.87214 2100.7,1697.97214 2078.7,1703.27214 C2059.2,1707.97214 2058.7,1707.97214 1834,1707.67214 C1635.1,1707.37214 1621.5,1707.27214 1613.1,1705.57214 C1563.4,1695.57214 1536.5,1669.57214 1525.2,1620.67214 L1523.1,1611.37214 L1522.5,1266.87214 C1522,943.572136 1521.8,921.772136 1520.2,912.072136 C1515.5,884.872136 1506.7,866.172136 1491.1,850.072136 C1475.7,834.172136 1455.9,824.672136 1427.5,819.672136 C1421.4,818.572136 1373.2,818.372136 1171,818.372136 C935.4,818.372136 921.5,818.472136 912.6,820.172136 C861.2,830.072136 831.5,860.072136 821.8,911.872136 C820.1,920.972136 820,980.272136 820,2247.87214 L820,3574.37214 L822.2,3586.37214 C827.1,3612.97214 836.3,3631.87214 851.6,3646.47214 C869,3662.97214 891.3,3672.07214 922.5,3675.17214 C924.4,3675.37214 1037.8,3675.47214 1174.5,3675.47214 L1423,3675.27214 L1432.5,3673.17214 Z M8853,3674.87214 C8908.2,3668.47214 8939.3,3641.07214 8949.7,3589.67214 L8952,3578.37214 L8952,3325.37214 C8952,3085.37214 8951.9,3071.87214 8950.2,3063.47214 C8946.4,3044.77214 8939.8,3028.67214 8931,3016.37214 C8926.1,3009.47214 8915.1,2998.67214 8908.5,2994.17214 C8896.9,2986.37214 8880.2,2979.67214 8863.2,2976.17214 C8855.7,2974.57214 8830.2,2974.47214 8546.5,2973.87214 C8240.1,2973.27214 8237.9,2973.27214 8227.5,2971.17214 C8184.8,2962.77214 8157.7,2941.17214 8144.9,2905.37214 C8143.1,2900.17214 8140.5,2891.57214 8139.3,2886.17214 L8137,2876.37214 L8136.5,1897.87214 L8135.9,919.372136 L8133.8,908.372136 C8128.6,882.272136 8118.8,862.672136 8103.6,847.972136 C8086.8,831.872136 8061.6,821.472136 8032.4,818.872136 C8023.5,818.072136 7951.3,817.872136 7777,818.072136 L7534,818.472136 L7524.1,820.672136 C7506.1,824.572136 7492.1,830.372136 7479.4,838.972136 C7457.2,853.972136 7442.5,878.372136 7436.2,910.372136 L7434.1,921.372136 L7433.5,1899.87214 L7433,2878.37214 L7430.7,2888.07214 C7424.7,2914.07214 7416,2930.57214 7400.9,2944.97214 C7386.6,2958.37214 7368.4,2966.67214 7342,2971.67214 C7333.7,2973.17214 7308.7,2973.37214 7024.5,2973.87214 L6716,2974.47214 L6706.7,2976.57214 C6657.3,2987.97214 6629.9,3016.07214 6619.8,3065.47214 C6618.1,3073.87214 6618,3087.27214 6618,3324.87214 C6618,3565.57214 6618.1,3575.77214 6619.9,3585.37214 C6629.6,3637.27214 6661.3,3667.07214 6714.4,3674.37214 C6722.3,3675.47214 6913.9,3675.67214 7784,3675.79089 C8502.9,3675.87214 8846.9,3675.57214 8853,3674.87214 Z" id="Shape" stroke="#979797"></path>
                    <path d="M12859.2,3674.87214 C12841.6,3672.77214 12823.3,3667.27214 12811,3660.47214 C12783.4,3644.97214 12766.1,3617.47214 12760.3,3579.87214 C12759.2,3572.87214 12759,3330.47214 12759,2246.37214 C12759,980.272136 12759.1,920.972136 12760.8,911.872136 C12765.9,884.372136 12776.5,863.372136 12793.2,847.772136 C12808.2,833.872136 12827.1,824.872136 12851.6,820.172136 C12860.5,818.472136 12874.4,818.372136 13110,818.372136 C13312.2,818.372136 13360.4,818.572136 13366.5,819.672136 C13394.9,824.672136 13414.7,834.172136 13430.1,850.072136 C13445.7,866.172136 13454.5,884.772136 13459.2,912.072136 C13460.9,921.872136 13461,955.672136 13461.5,1597.87214 C13462,2234.47214 13462.1,2273.57214 13463.7,2277.67214 C13473,2300.97214 13494.5,2300.17214 13507.3,2276.07214 C13509,2272.97214 13633.7,1968.17214 13784.5,1598.87214 C13935.3,1229.57214 14061.1,921.572136 14064.2,914.372136 C14089.8,854.072136 14128.7,824.172136 14188.2,818.872136 C14196.2,818.172136 14299.9,817.872136 14515,818.072136 C14807.7,818.372136 14830.6,818.572136 14839,820.072136 C14888.9,829.672136 14917,856.472136 14927.7,905.072136 L14930,915.372136 L14930,2246.87214 L14930,3578.37214 L14927.7,3589.67214 C14917.3,3641.07214 14886.2,3668.47214 14831,3674.87214 C14825.1,3675.47214 14738.9,3675.87214 14579.5,3675.87214 C14377.3,3675.87214 14335.3,3675.57214 14326.5,3674.47214 C14297.9,3670.67214 14276.3,3660.87214 14259.9,3644.47214 C14245,3629.57214 14236.2,3611.67214 14230.8,3584.87214 C14229.1,3576.87214 14229,3536.97214 14228.5,2899.37214 C14228,2235.57214 14228,2222.27214 14226.1,2217.37214 C14221.9,2206.37214 14215.7,2200.27214 14207.8,2199.17214 C14199.3,2198.07214 14187.8,2206.37214 14181.9,2218.07214 C14180.6,2220.67214 14054.6,2528.67214 13902,2902.57214 C13749.3,3276.47214 13622,3587.37214 13619,3593.37214 C13599.1,3633.67214 13571.2,3658.27214 13533,3669.37214 C13510.6,3675.87214 13538.9,3675.37214 13186,3675.47214 C13010,3675.57214 12862.9,3675.27214 12859.2,3674.87214 Z" id="Path"></path>
                    <path d="M16051.5,3674.77214 C16034.9,3672.87214 16016.2,3667.27214 16004,3660.47214 C15976.4,3644.97214 15959.1,3617.47214 15953.3,3579.87214 C15952.2,3572.87214 15952,3330.47214 15952,2246.37214 C15952,980.272136 15952.1,920.972136 15953.8,911.872136 C15958.9,884.372136 15969.5,863.372136 15986.2,847.772136 C16001.2,833.872136 16020.1,824.872136 16044.6,820.172136 C16053.6,818.472136 16090.9,818.372136 16931.5,818.372136 C17647.8,818.372136 17810.6,818.572136 17817.5,819.672136 C17836.7,822.572136 17855.8,829.472136 17868.2,837.972136 C17890.3,853.072136 17904.6,878.472136 17909.7,911.872136 C17910.7,918.672136 17911.0102,969.772136 17911.0102,1169.87214 C17911.0102,1449.87214 17911.6,1427.87214 17903.6,1451.47214 C17891.4,1487.67214 17865.9,1508.97214 17824.5,1517.57214 C17816.5,1519.17214 17785.8,1519.27214 17299,1519.87214 C16833.2,1520.47214 16781.2,1520.67214 16774,1522.07214 C16748.4,1527.17214 16731.1,1534.87214 16715.2,1548.27214 C16699.2,1561.67214 16687.3,1583.67214 16681.2,1611.27214 C16679,1621.27214 16679,1621.97214 16679,1707.87214 C16679,1803.67214 16678.9,1801.47214 16685.7,1822.77214 C16691.5,1840.87214 16699,1853.27214 16711.6,1865.47214 C16726.7,1879.97214 16743.8,1888.07214 16771.2,1893.57214 C16779.5,1895.17214 16800.4,1895.37214 17119,1895.87214 C17484.2,1896.47214 17459.7,1896.17214 17479.1,1901.27214 C17521,1912.17214 17547,1943.47214 17554.7,1991.87214 C17555.8,1998.77214 17556,2046.47214 17556,2248.37214 C17556,2481.77214 17555.9,2496.97214 17554.2,2506.37214 C17551.6,2520.97214 17548.9,2530.17214 17544,2540.47214 C17538.5,2552.27214 17533.2,2559.97214 17525.4,2567.77214 C17511.6,2581.47214 17495.8,2589.37214 17471,2595.07214 L17461,2597.27214 L17122,2597.87214 C16809,2598.37214 16782.3,2598.57214 16774,2600.07214 C16751,2604.47214 16732.9,2612.07214 16718.6,2623.57214 C16696.8,2640.97214 16682.9,2668.97214 16679.5,2702.57214 C16678.7,2709.87214 16678.5,2739.37214 16678.7,2793.37214 C16679.1,2881.47214 16679,2880.07214 16685.7,2900.87214 C16691.3,2918.27214 16699.1,2931.27214 16710.7,2942.47214 C16726.9,2958.17214 16744.4,2966.47214 16772,2971.67214 C16780.4,2973.27214 16816.6,2973.37214 17297.5,2973.87214 L17814,2974.37214 L17825.5,2977.07214 C17868.7,2986.87214 17894.8,3010.97214 17906,3051.37214 C17911.2,3070.07214 17911.0102,3059.07214 17911.0102,3326.37214 C17911.0102,3557.07214 17910.9,3576.07214 17909.3,3584.87214 C17904.4,3611.77214 17895.6,3630.47214 17880.9,3645.27214 C17866.4,3659.67214 17848.7,3668.27214 17822.5,3673.57214 C17814.5,3675.17214 17761.5,3675.27214 16936.5,3675.4913 C16453.9,3675.57214 16055.6,3675.27214 16051.5,3674.77214 Z" id="Path"></path>
                    <path d="M18812.4,3674.37214 C18759.3,3667.07214 18727.6,3637.27214 18717.9,3585.37214 C18716.1,3575.77214 18716,3565.57214 18716,3324.87214 C18716,3087.27214 18716.1,3073.87214 18717.8,3065.47214 C18721.9,3045.37214 18728.8,3029.17214 18739.4,3015.07214 C18754,2995.77214 18774.7,2983.47214 18804.7,2976.57214 L18814,2974.47214 L19122.5,2973.87214 C19406.7,2973.37214 19431.7,2973.17214 19440,2971.67214 C19466.4,2966.67214 19484.6,2958.37214 19498.9,2944.97214 C19514,2930.57214 19522.7,2914.07214 19528.7,2888.07214 L19531,2878.37214 L19531.5,1899.87214 L19532.1,921.372136 L19534.2,910.372136 C19544,860.572136 19572.4,831.572136 19622.1,820.672136 L19632,818.472136 L19875,818.072136 C20049.3,817.872136 20121.5,818.072136 20130.4,818.872136 C20159.6,821.472136 20184.8,831.872136 20201.6,847.972136 C20216.8,862.672136 20226.6,882.272136 20231.8,908.372136 L20233.9,919.372136 L20234.5,1897.87214 L20235,2876.37214 L20237.3,2886.17214 C20238.5,2891.57214 20241.1,2900.17214 20242.9,2905.37214 C20255.7,2941.17214 20282.8,2962.77214 20325.5,2971.17214 C20335.9,2973.27214 20338.1,2973.27214 20644.5,2973.87214 C20928.2,2974.47214 20953.7,2974.57214 20961.2,2976.17214 C20978.2,2979.67214 20994.9,2986.37214 21006.5,2994.17214 C21013.1,2998.67214 21024.1,3009.47214 21029,3016.37214 C21037.8,3028.67214 21044.4,3044.77214 21048.2,3063.47214 C21049.9,3071.87214 21050,3085.37214 21050,3325.37214 L21050,3578.37214 L21047.7,3589.67214 C21037.3,3641.07214 21006.2,3668.47214 20951,3674.87214 C20944.9,3675.57214 20600.9,3675.87214 19882,3675.79089 C19011.9,3675.67214 18820.3,3675.47214 18812.4,3674.37214 Z" id="Path"></path>
                    <path d="M4825,2981.17214 C4756.9,2978.47214 4704.7,2968.07214 4666.5,2949.77214 C4607.4,2921.37214 4577.7,2872.37214 4568.1,2787.37214 C4564.1,2752.07214 4564,2748.27214 4564,2481.87214 C4564,2239.17214 4564.1,2223.87214 4565.8,2214.87214 C4575.3,2164.17214 4603.3,2134.77214 4652.5,2123.67214 L4663,2121.37214 L4858.5,2121.37214 L5054,2121.37214 L5065.3,2123.67214 C5093.2,2129.27214 5112.4,2138.67214 5128.1,2154.27214 C5143.1,2169.27214 5151.9,2187.57214 5157.2,2215.17214 C5158.9,2223.87214 5159.00011,2239.37214 5159.00011,2485.37214 C5159.00011,2769.27214 5159.1,2760.87214 5153.4,2800.37214 C5145.2,2857.27214 5125.8,2898.77214 5095.3,2924.77214 C5049.1,2964.17214 4972.7,2982.57214 4858.1,2981.67214 C4843.7,2981.57214 4828.9,2981.37214 4825,2981.17214 Z" id="Path"></path>
                    <path d="M10716,3046.27214 C10713.8,3046.07214 10706.4,3045.47214 10699.5,3044.87214 C10636,3039.47214 10581.8,3021.07214 10543.6,2991.97214 C10477,2941.17214 10444.6,2855.37214 10435,2704.37214 C10431.8,2652.67214 10431.5,2621.07214 10431.5,2246.37214 C10431.5,1886.07214 10431.8,1841.77214 10434.5,1796.87214 C10442.9,1659.17214 10467.9,1577.97214 10518.7,1524.27214 C10554.5,1486.47214 10606,1462.27214 10671.6,1452.37214 C10703.5,1447.57214 10758,1445.47214 10792.5,1447.77214 C10922.6,1456.57214 10999,1505.17214 11037.8,1603.87214 C11059.5,1659.37214 11069.8,1723.67214 11074.7,1834.87214 C11076.6,1877.67214 11076.6,2616.07214 11074.7,2658.87214 C11069.2,2785.77214 11056,2855.97214 11026.9,2914.27214 C11015.6,2936.87214 11002.8,2954.87214 10985.7,2972.27214 C10945.3,3013.27214 10892,3035.67214 10813.5,3044.47214 C10803.1,3045.67214 10787.8,3046.17214 10759.5,3046.37214 C10737.8,3046.47214 10718.2,3046.47214 10716,3046.27214 Z" id="Path"></path>
                </g>
            </g>
        </g>
    </g>
</svg>