<svg xmlns="http://www.w3.org/2000/svg" viewBox="0 0 1052.9 208.2"><path d="M12.5.5A12.2,12.2,0,0,0,4.6,4.2a14.8,14.8,0,0,0-4,8.2v91.7c0,87.6,0,91,.1,91.6a14.7,14.7,0,0,0,3.9,8.2l2.1,1.8a13.5,13.5,0,0,0,4.7,1.8l.6.2H1040.8a12,12,0,0,0,6.4-2.6l2-2a15.6,15.6,0,0,0,3.2-8c.1-.8.1-181,0-181.7a14.6,14.6,0,0,0-4.2-9.2,12.3,12.3,0,0,0-7.6-3.6ZM1039.2,7l2,.7a7.4,7.4,0,0,1,2.1,1.5,9.6,9.6,0,0,1,2.8,5.8c.1.5.1,9.6.1,87.5,0,75.4,0,87-.1,87.6a13,13,0,0,1-2,5.8,11.6,11.6,0,0,1-7.7,5.1H600.5V6.9h438.7ZM238.9,27c10,.3,18.1,2.2,24.6,5.5a34.1,34.1,0,0,1,6.7,4.5,37.6,37.6,0,0,1,3.4,3.5c5.6,6.7,8.5,15.7,9.3,28.6,0,.7.1,1.7.1,2.3s.2,90.7.1,91.5c-.4,3.2-2,5-5,5.3H265.8c-12.8,0-11.9,0-12.9-.3a4.7,4.7,0,0,1-3.5-4c-.1-.4-.1-1.3-.1-10.2s-.1-9.7-.1-10a5.6,5.6,0,0,0-1.3-2.8,5.1,5.1,0,0,0-2.8-1.5H224.9a4.9,4.9,0,0,0-4.2,4.3c-.1.5-.1,1.1-.2,10.2,0,10.6,0,9.9-.3,10.9a4.6,4.6,0,0,1-3.3,3.2c-.9.2-.1.2-12.9.2H191.7a5.9,5.9,0,0,1-3.3-1.5,7,7,0,0,1-1.7-4V73.3A88.9,88.9,0,0,1,188.5,57c2.4-10.7,7.5-18.3,15.5-23.2s16.5-6.6,28.4-6.9Zm282.2-.1a67.1,67.1,0,0,1,9.3.8c10.7,1.5,19.3,5.5,25.6,11.8s10.4,15,11.8,25.7a50,50,0,0,1,.5,5.5c.1,1.1.2,53.6.1,55.9a60.3,60.3,0,0,1-3.7,19.4c-4.4,11-12.6,18.7-24.2,22.6a64.6,64.6,0,0,1-16.8,3.1c-1.3.1-6.6.1-8.1,0-11.2-.5-19.9-2.8-27.2-7.4a35.1,35.1,0,0,1-11-10.7c-4.1-6.1-6.5-13.4-7.4-22.1q-.2-1.5-.3-3.9c-.1-1.3-.1-51.8-.1-54.7s.2-3.6.3-5.3c1-9.9,4.1-18.4,9.1-24.8l2.7-3.1a39.6,39.6,0,0,1,7.9-6.1l4.6-2.3a61.3,61.3,0,0,1,22.5-4.4ZM69.6,30.6a6.3,6.3,0,0,1,2.2.9,5.6,5.6,0,0,1,2,3.4V86.8l.2.5a4.9,4.9,0,0,0,1.3,2.6,6,6,0,0,0,3.1,1.5H100a6,6,0,0,0,3-1.4,4.7,4.7,0,0,0,1.4-2.8l.2-.4V61.1c0-23.2,0-25.8.1-26.1a6.9,6.9,0,0,1,.5-1.7,5,5,0,0,1,3.7-2.7l12.3-.2h12.4a5.4,5.4,0,0,1,3.5,1.5,4.9,4.9,0,0,1,1.3,2.9c0,.6.1,3.4.1,64.4s-.1,63.9-.1,64.4a6,6,0,0,1-1.4,3,5.9,5.9,0,0,1-3.5,1.5H109a5,5,0,0,1-2.8-1.4,5.4,5.4,0,0,1-1.5-3c-.1-.4-.1-1.6-.1-17.1-.1-18.6,0-16.9-.4-18a4.2,4.2,0,0,0-1.1-1.8,4.7,4.7,0,0,0-2.4-1.3c-.9-.2-.9-.2-11.8-.2H78.3a5.1,5.1,0,0,0-4.3,4.1v17.1c0,15.6,0,16.6-.1,17.1a5.6,5.6,0,0,1-1.4,3,5.3,5.3,0,0,1-3.1,1.5H44.5a5,5,0,0,1-4.4-4.4c-.1-.4-.1-3.3-.1-64.4V34.8A5,5,0,0,1,45,30.5H69.6Zm357.8-.1a4.7,4.7,0,0,1,4.6,4.1V60a5,5,0,0,1-1,2.2,2.9,2.9,0,0,1-1.1,1.1,5.8,5.8,0,0,1-2.1.9H397.2a5,5,0,0,0-4,3.2,2.9,2.9,0,0,0-.2.9l-.2.5v94.9a5.4,5.4,0,0,1-1.5,2.9,5.3,5.3,0,0,1-3.4,1.4H363.3a7.3,7.3,0,0,1-2.2-.9,5.3,5.3,0,0,1-2-3.4V68.4a5.4,5.4,0,0,0-1.4-2.7,4.9,4.9,0,0,0-2.9-1.3H323.9a5.2,5.2,0,0,1-4.2-4.3c-.1-.4-.1-1.1-.1-12.5s0-12.1.1-12.6a5,5,0,0,1,4.6-4.3H427.4Z" style="fill:#f60;stroke:#fff"/><path d="M620.5,30.5a7.8,7.8,0,0,0-2.3.7,4.9,4.9,0,0,0-2.4,3.9c-.1.3-.1,12-.1,64.3,0,61,0,63.9.1,64.3a5.5,5.5,0,0,0,1.6,3.1,4.9,4.9,0,0,0,2.8,1.3H645a5.7,5.7,0,0,0,3.1-1.5,6.4,6.4,0,0,0,1.4-3c.1-.5.1-2.1.1-33.1s0-32.5.1-32.7,1.5-1.1,2.1,0l13.4,32.7c7.2,17.8,13.3,32.6,13.4,33,1.3,2.9,3.1,4.3,6,4.6H716a4.8,4.8,0,0,0,4.3-4.1V34.6c-.5-2.5-2-3.8-4.7-4.1H691.3a5.9,5.9,0,0,0-3.2,1.4,5.3,5.3,0,0,0-1.4,2.9c-.1.4-.1,2.3-.1,33.1s-.1,32.6-.2,32.9-.5.8-.8.8-1-.3-1.3-.9-6.1-14.9-13.5-33-13.5-33-13.6-33.3a6.9,6.9,0,0,0-4.2-3.7c-1.1-.3.3-.2-16.7-.2C627.8,30.4,620.7,30.5,620.5,30.5Z" style="fill:#f60;stroke:#fff;stroke-miterlimit:10"/><path d="M774.5,30.5a7.8,7.8,0,0,0-2.3.7,5,5,0,0,0-2.5,3.9V99.4c0,61,0,63.9.1,64.3a5.4,5.4,0,0,0,1.5,3.1,4.9,4.9,0,0,0,2.8,1.3h85.5a8.1,8.1,0,0,0,2.5-.9,5.8,5.8,0,0,0,2-3.6V151.3c0-13.5.1-12.5-.3-13.6a4.7,4.7,0,0,0-3.8-3.2H809.3a5.6,5.6,0,0,1-2.8-1.3,5.2,5.2,0,0,1-1.7-3c-.1-.5-.1-.5-.1-4.7s0-4.5.3-5.5a5,5,0,0,1,1.3-2.1,4.6,4.6,0,0,1,2.9-1.3h16.7c17.6-.1,16.5-.1,17.4-.3a4.7,4.7,0,0,0,3.6-4.4c.1-.3.1-2.6.1-12.3,0-11.3,0-12-.1-12.5a3.8,3.8,0,0,0-.5-1.6,2.5,2.5,0,0,0-.9-1.3,4.7,4.7,0,0,0-2.6-1.4H809.3a6.7,6.7,0,0,1-2.7-1.1,6,6,0,0,1-1.9-3.8V73c0-4.3,0-4.2.3-5.2a5.6,5.6,0,0,1,1.2-2,5,5,0,0,1,3-1.4h50.2l.6-.2a4.7,4.7,0,0,0,3.9-3.6c.2-.9.2-.3.2-13.2,0-11.1,0-12.1-.1-12.5a4.9,4.9,0,0,0-1.3-2.9,5.7,5.7,0,0,0-2.8-1.4H817.1C793.9,30.4,774.7,30.5,774.5,30.5Z" style="fill:#f60;stroke:#fff;stroke-miterlimit:10"/><path d="M907.6,30.5a5,5,0,0,0-4.6,4.3c-.1.5-.1,1-.1,12.6s0,12.1.1,12.5a6.6,6.6,0,0,0,1.1,2.4,5.7,5.7,0,0,0,3.1,1.9h30.6a4.9,4.9,0,0,1,2.9,1.3,5.4,5.4,0,0,1,1.4,2.7v95.4a5,5,0,0,0,4.2,4.3h24.5a5.6,5.6,0,0,0,3.5-1.4,5.3,5.3,0,0,0,1.4-2.9V68.5a3.2,3.2,0,0,1,.3-.9,4.8,4.8,0,0,1,3.9-3.2h30.7a7.3,7.3,0,0,0,2.2-.9,5.7,5.7,0,0,0,1.1-1.1,6.3,6.3,0,0,0,.9-2.2c.1-.4.1-1.1.1-12.7V34.6c-.5-2.5-2-3.8-4.7-4.1H907.6Z" style="fill:#f60;stroke:#fff;stroke-miterlimit:10"/><path d="M233.1,63.9a23.1,23.1,0,0,0-7.6,1.5c-2.8,1.4-4.3,3.8-4.7,7.9-.2,1.7-.2,1.9-.2,14.7s0,12.4.1,12.9a5.1,5.1,0,0,0,4.1,4.4h19.9a5.1,5.1,0,0,0,4.5-4.4c0-.5.1-1.2.1-13.1,0-13.7,0-13.2-.3-15.2s-1.3-4.7-2.8-5.9-5.9-2.8-11.5-2.8Z" style="fill:#f60;stroke:#fff;stroke-miterlimit:10"/><path d="M517.2,60.8h-.8a13.7,13.7,0,0,0-7.5,2.5c-3.2,2.5-4.8,6.6-5.3,13.9-.1,2.5-.1,4-.1,22.1s0,19.5.1,21.6c.4,6.7,1.6,10.6,4.1,13.2a11.9,11.9,0,0,0,7.4,3.4,27.5,27.5,0,0,0,5.8.3c6.3-.5,9.9-2.8,11.8-7.6,1.1-2.6,1.6-5.7,1.8-11.1.1-2.1.1-37.7,0-39.7-.3-6.1-.9-9.5-2.3-12.3a11.8,11.8,0,0,0-2-2.8c-1.9-2-4.5-3.1-8.3-3.5h-4.7Z" style="fill:#f60;stroke:#fff;stroke-miterlimit:10"/></svg>
